<svg width="11" height="16" viewBox="0 0 11 16" fill="none" xmlns="http://www.w3.org/2000/svg">
<path d="M2.23242 14.9653L1.15362 11.8722C1.07479 11.6463 1.0346 11.4088 1.03476 11.1696V10.1691H4.01599V11.1696C4.01614 11.4088 3.97596 11.6463 3.89713 11.8722L2.81972 14.9653C2.79874 15.0265 2.75915 15.0796 2.7065 15.1172C2.65386 15.1548 2.59077 15.175 2.52607 15.175C2.46137 15.175 2.39829 15.1548 2.34564 15.1172C2.29299 15.0796 2.25341 15.0265 2.23242 14.9653Z" fill="#F30C2B"/>
<path d="M4.53966 2.66285H4.583C4.70872 2.66285 4.8293 2.71279 4.91819 2.80169C5.00709 2.89058 5.05703 3.01116 5.05703 3.13688V8.32186C5.05693 8.51898 4.97875 8.70802 4.8396 8.84763L4.02088 9.66565H1.03616L0.217438 8.84763C0.0782838 8.70802 0.000101665 8.51898 0 8.32186V3.13688C0.000184937 3.01121 0.0501858 2.89075 0.139044 2.80189C0.227902 2.71303 0.348367 2.66303 0.474031 2.66285H0.517379V1.91125C0.517379 1.91125 0 1.62599 0 1.27431V0.649264H5.05354V1.27431C5.05354 1.6239 4.53616 1.91125 4.53616 1.91125L4.53966 2.66285Z" fill="#F30C2B"/>
<path d="M1.52768 10.6724H2.03807V11.2479L2.36318 14.1718L1.52768 11.4059V10.6724Z" fill="white"/>
<path d="M1.21024 8.67703H1.8276C1.88322 8.67703 1.93657 8.65493 1.97591 8.61559C2.01525 8.57626 2.03734 8.52291 2.03734 8.46728V3.14736H0.999089V8.46588C0.998903 8.49366 1.00424 8.5212 1.01478 8.5469C1.02533 8.5726 1.04087 8.59596 1.06052 8.6156C1.08016 8.63524 1.10351 8.65079 1.12921 8.66133C1.15492 8.67188 1.18246 8.67721 1.21024 8.67703Z" fill="white"/>
<path d="M2.03877 1.633H0.999115V1.1317H2.03877V1.633Z" fill="white"/>
<path d="M8.10888 0.208111L7.02938 3.3012C6.95088 3.52716 6.91071 3.76465 6.91052 4.00386V5.00226H9.89245V4.00386C9.89236 3.76458 9.85195 3.52704 9.77289 3.3012L8.69408 0.208111C8.67298 0.147318 8.63346 0.0946064 8.58103 0.057303C8.52859 0.02 8.46584 -4.57764e-05 8.40148 -4.57764e-05C8.33713 -4.57764e-05 8.27438 0.02 8.22194 0.057303C8.1695 0.0946064 8.12999 0.147318 8.10888 0.208111Z" fill="#F30C2B"/>
<path d="M10.4126 12.5106H10.4567C10.5189 12.5106 10.5805 12.4983 10.638 12.4745C10.6954 12.4506 10.7476 12.4157 10.7916 12.3717C10.8356 12.3276 10.8704 12.2754 10.8942 12.2179C10.9179 12.1604 10.9301 12.0987 10.93 12.0365V6.85154C10.9299 6.65464 10.8517 6.46582 10.7126 6.32647L9.89454 5.50776H6.91052L6.0925 6.32368C6.02336 6.39253 5.96851 6.47436 5.93107 6.56446C5.89364 6.65457 5.87436 6.75118 5.87436 6.84875V12.0365C5.87436 12.1622 5.9243 12.2828 6.0132 12.3717C6.1021 12.4606 6.22267 12.5106 6.34839 12.5106H6.39174V13.2622C6.39174 13.2622 5.87436 13.5474 5.87436 13.8991V14.5248H10.9279V13.8991C10.9279 13.5495 10.4105 13.2622 10.4105 13.2622L10.4126 12.5106Z" fill="#F30C2B"/>
<path d="M7.40271 4.50095H7.9131V3.92554L8.23751 1.00234L7.40271 3.76823V4.50095Z" fill="white"/>
<path d="M7.08459 6.49636H7.70195C7.75758 6.49636 7.81093 6.51846 7.85026 6.5578C7.8896 6.59713 7.9117 6.65048 7.9117 6.70611V12.0267H6.87344V6.70611C6.87344 6.67845 6.87891 6.65106 6.88954 6.62552C6.90017 6.59998 6.91574 6.5768 6.93537 6.5573C6.955 6.5378 6.97828 6.52238 7.00389 6.51193C7.0295 6.50147 7.05693 6.49618 7.08459 6.49636Z" fill="white"/>
<path d="M7.9131 14.0417H6.87344V13.5404H7.9131V14.0417Z" fill="white"/>
</svg>
