<svg width="96" height="96" viewBox="0 0 96 96" fill="none" xmlns="http://www.w3.org/2000/svg">
<circle opacity="0.1" cx="47.8492" cy="47.8492" r="35.8869" fill="#DFAC2A"/>
<circle opacity="0.1" cx="47.8492" cy="47.8492" r="47.1775" stroke="#FDC637" stroke-width="1.34328"/>
<path d="M47.8492 21.9309C33.5352 21.9309 21.9309 33.5349 21.9309 47.8492C21.9309 62.1635 33.5352 73.7675 47.8492 73.7675C62.1633 73.7675 73.7675 62.1635 73.7675 47.8492C73.7675 33.5349 62.1633 21.9309 47.8492 21.9309ZM56.8073 49.2231L43.8481 57.3226C43.5859 57.4863 43.2877 57.5686 42.9896 57.5686C42.7194 57.5686 42.4489 57.5013 42.2041 57.3653C41.6892 57.0798 41.3697 56.5379 41.3697 55.9487V39.7497C41.3697 39.1605 41.6892 38.6186 42.2041 38.3331C42.719 38.046 43.3487 38.0634 43.8481 38.3759L56.8073 46.4753C57.2807 46.772 57.5686 47.2909 57.5686 47.8492C57.5686 48.4076 57.2807 48.9265 56.8073 49.2231Z" fill="url(#paint0_linear_4_18)"/>
<defs>
<linearGradient id="paint0_linear_4_18" x1="47.8492" y1="21.9309" x2="47.8492" y2="73.7675" gradientUnits="userSpaceOnUse">
<stop stop-color="#FDC637"/>
<stop offset="1" stop-color="#A07811"/>
</linearGradient>
</defs>
</svg>
