<svg width="14" height="14" viewBox="0 0 14 14" fill="none" xmlns="http://www.w3.org/2000/svg">
<path d="M4.66723 6.9997C4.66723 5.71104 5.71162 4.66609 7.00028 4.66609C8.28895 4.66609 9.3339 5.71104 9.3339 6.9997C9.3339 8.28837 8.28895 9.33332 7.00028 9.33332C5.71162 9.33332 4.66723 8.28837 4.66723 6.9997ZM3.40571 6.9997C3.40571 8.985 5.01498 10.5943 7.00028 10.5943C8.98558 10.5943 10.5949 8.985 10.5949 6.9997C10.5949 5.01441 8.98558 3.40513 7.00028 3.40513C5.01498 3.40513 3.40571 5.01441 3.40571 6.9997ZM9.89709 3.26264C9.89709 3.72631 10.2731 4.1029 10.7373 4.1029C11.201 4.1029 11.5776 3.72631 11.5776 3.26264C11.5776 2.79897 11.2016 2.42294 10.7373 2.42294C10.2731 2.42294 9.89709 2.79897 9.89709 3.26264ZM4.1719 12.6978C3.4894 12.6667 3.11846 12.553 2.87193 12.4569C2.54509 12.3296 2.31213 12.1781 2.06672 11.9333C1.82188 11.6884 1.66978 11.4555 1.54312 11.1286C1.44699 10.8821 1.33333 10.5112 1.30223 9.82866C1.26831 9.09074 1.26152 8.86908 1.26152 6.9997C1.26152 5.13032 1.26887 4.90923 1.30223 4.17075C1.33333 3.48825 1.44755 3.11788 1.54312 2.87078C1.67034 2.54395 1.82188 2.31098 2.06672 2.06558C2.31156 1.82074 2.54453 1.66863 2.87193 1.54197C3.11846 1.44584 3.4894 1.33219 4.1719 1.30109C4.90981 1.26716 5.13147 1.26038 7.00028 1.26038C8.86966 1.26038 9.09076 1.26773 9.82923 1.30109C10.5117 1.33219 10.8821 1.44641 11.1292 1.54197C11.456 1.66863 11.689 1.82074 11.9344 2.06558C12.1792 2.31042 12.3308 2.54395 12.458 2.87078C12.5541 3.11732 12.6678 3.48825 12.6989 4.17075C12.7328 4.90923 12.7396 5.13032 12.7396 6.9997C12.7396 8.86852 12.7328 9.09018 12.6989 9.82866C12.6678 10.5112 12.5536 10.8821 12.458 11.1286C12.3308 11.4555 12.1792 11.6884 11.9344 11.9333C11.6896 12.1781 11.456 12.3296 11.1292 12.4569C10.8827 12.553 10.5117 12.6667 9.82923 12.6978C9.09132 12.7317 8.86966 12.7385 7.00028 12.7385C5.13147 12.7385 4.90981 12.7317 4.1719 12.6978ZM4.11422 0.041829C3.36896 0.0757561 2.86005 0.193935 2.41504 0.366963C1.95476 0.545646 1.5646 0.785397 1.17501 1.17443C0.785977 1.56346 0.546226 1.95362 0.367543 2.41446C0.194515 2.85947 0.0763359 3.36838 0.0424088 4.11364C0.00791631 4.86004 0 5.09866 0 6.9997C0 8.90075 0.00791631 9.13937 0.0424088 9.88577C0.0763359 10.631 0.194515 11.1399 0.367543 11.5849C0.546226 12.0452 0.785411 12.4359 1.17501 12.825C1.56404 13.214 1.9542 13.4532 2.41504 13.6324C2.86062 13.8055 3.36896 13.9237 4.11422 13.9576C4.86118 13.9915 5.09924 14 7.00028 14C8.90189 14 9.13995 13.9921 9.88634 13.9576C10.6316 13.9237 11.1405 13.8055 11.5855 13.6324C12.0458 13.4532 12.436 13.214 12.8256 12.825C13.2146 12.4359 13.4538 12.0452 13.633 11.5849C13.8061 11.1399 13.9248 10.631 13.9582 9.88577C13.9921 9.13881 14 8.90075 14 6.9997C14 5.09866 13.9921 4.86004 13.9582 4.11364C13.9242 3.36838 13.8061 2.85947 13.633 2.41446C13.4538 1.95418 13.2146 1.56402 12.8256 1.17443C12.4365 0.785397 12.0458 0.545646 11.5861 0.366963C11.1405 0.193935 10.6316 0.0751906 9.88691 0.041829C9.14051 0.00790193 8.90189 -0.000579834 7.00085 -0.000579834C5.09924 -0.000579834 4.86118 0.00733648 4.11422 0.041829Z" fill="#7A7A7A"/>
</svg>
