<svg width="12" height="11" viewBox="0 0 12 11" fill="none" xmlns="http://www.w3.org/2000/svg">
<path d="M0.735699 4.93601C0.735699 4.93601 6.04301 2.75788 7.88367 1.99091C8.58929 1.68415 10.9822 0.702425 10.9822 0.702425C10.9822 0.702425 12.0866 0.272958 11.9946 1.31599C11.9639 1.7455 11.7184 3.2487 11.473 4.87465C11.1049 7.17552 10.7061 9.6911 10.7061 9.6911C10.7061 9.6911 10.6447 10.3967 10.1232 10.5194C9.60167 10.6421 8.74265 10.09 8.58929 9.96721C8.46655 9.87521 6.28842 8.49467 5.4908 7.81975C5.27604 7.63569 5.03063 7.26757 5.52145 6.83806C6.62588 5.82568 7.94503 4.56789 8.74265 3.77027C9.11081 3.40211 9.47893 2.54313 7.94503 3.58616C5.76691 5.08941 3.61944 6.5006 3.61944 6.5006C3.61944 6.5006 3.12858 6.80736 2.20825 6.53126C1.28787 6.25519 0.214139 5.88703 0.214139 5.88703C0.214139 5.88703 -0.522092 5.42687 0.735699 4.93601Z" fill="#7A7A7A"/>
</svg>
