<svg width="15" height="11" viewBox="0 0 15 11" fill="none" xmlns="http://www.w3.org/2000/svg">
<path d="M5.17503 11C10.2809 11 13.0732 6.76841 13.0732 3.09892C13.0732 2.97874 13.0707 2.85912 13.0653 2.73999C13.6086 2.34672 14.0775 1.85978 14.45 1.30202C13.9526 1.52322 13.4174 1.67211 12.8559 1.73924C13.429 1.39546 13.869 0.851592 14.0766 0.203308C13.5316 0.526678 12.9355 0.754638 12.3139 0.87736C11.8073 0.33759 11.0862 0 10.2876 0C8.75465 0 7.51154 1.2436 7.51154 2.77654C7.51154 2.99447 7.53593 3.20639 7.58356 3.40972C5.27645 3.29359 3.23067 2.18859 1.86153 0.508365C1.61493 0.93215 1.48523 1.41379 1.48566 1.9041C1.48566 2.86753 1.97571 3.71803 2.72096 4.21561C2.28013 4.20214 1.84899 4.08303 1.46377 3.86829C1.46336 3.87995 1.46336 3.8913 1.46336 3.90376C1.46336 5.2486 2.42019 6.37145 3.69036 6.62588C3.45181 6.69087 3.20564 6.72373 2.95839 6.72359C2.77984 6.72359 2.60582 6.70601 2.43669 6.67353C2.79009 7.77689 3.81485 8.57981 5.02983 8.60225C4.07973 9.34719 2.88291 9.79091 1.58213 9.79091C1.36085 9.7911 1.13975 9.77825 0.919983 9.75243C2.14852 10.5402 3.60728 10.9998 5.17517 10.9998" fill="white" fill-opacity="0.38"/>
</svg>
