<svg width="15" height="10" viewBox="0 0 15 10" fill="none" xmlns="http://www.w3.org/2000/svg">
<path d="M7.54846 9.9869L4.58257 9.93266C3.62228 9.91375 2.6596 9.95148 1.71814 9.75566C0.285967 9.46308 0.184507 8.02852 0.0783391 6.82519C-0.0679492 5.13346 -0.0113166 3.41102 0.264748 1.73341C0.420596 0.792095 1.03392 0.230406 1.9824 0.169284C5.18424 -0.0525388 8.40736 -0.0262506 11.6021 0.0772376C11.9395 0.0867246 12.2792 0.138577 12.6119 0.1976C14.2542 0.485469 14.2942 2.11115 14.4007 3.47967C14.5069 4.86232 14.462 6.25206 14.2591 7.62528C14.0963 8.76228 13.7848 9.71576 12.4703 9.8078C10.8234 9.92817 9.21419 10.0251 7.56258 9.99421C7.56265 9.9869 7.55317 9.9869 7.54846 9.9869ZM5.8048 7.10835C7.04594 6.39574 8.26339 5.695 9.49743 4.98717C8.25398 4.27456 7.03884 3.57382 5.8048 2.86599V7.10835Z" fill="#7A7A7A"/>
</svg>
