<svg width="11" height="12" viewBox="0 0 11 12" fill="none" xmlns="http://www.w3.org/2000/svg">
<path opacity="0.4" d="M3.5682 1.84885H7.25381V0.990723H3.5682V1.84885ZM2.72979 1.02597V1.03024C2.44209 1.0564 2.15747 1.11354 1.88057 1.19951V1.19631C1.86153 1.20432 1.84506 1.20806 1.82911 1.21607C1.80698 1.22141 1.78536 1.22942 1.76477 1.23956C1.70404 1.25932 1.64331 1.28282 1.58618 1.30685C1.55581 1.3186 1.52545 1.33408 1.49508 1.34583C1.45339 1.36559 1.4081 1.38908 1.36641 1.40884L1.26348 1.46811C1.23311 1.4836 1.20635 1.50336 1.17598 1.52151C1.02106 1.62137 0.877468 1.73832 0.747769 1.87128L0.740049 1.87929C0.694243 1.93269 0.648951 1.98182 0.607263 2.03308L0.599542 2.04056C0.178536 2.62154 -0.0324814 3.33763 0.00406069 4.06333V4.29348H0.835265V4.0612C0.835265 3.04981 1.15745 2.42023 1.8744 2.0977C2.14821 1.98182 2.43746 1.91026 2.73185 1.8841H2.73957V1.0297L2.72979 1.02597ZM10.2024 2.03735L10.1988 2.02988C10.1561 1.97594 10.1103 1.92468 10.0619 1.87609L10.0573 1.86808C9.92601 1.73618 9.78087 1.6187 9.62544 1.51831C9.59868 1.50229 9.57397 1.48253 9.54206 1.46491C9.51015 1.44729 9.47361 1.42539 9.43552 1.40564C9.39847 1.38588 9.35215 1.36238 9.30685 1.34263C9.28061 1.33088 9.24973 1.31539 9.21627 1.30364C9.15811 1.27961 9.10201 1.25612 9.0418 1.23636C9.01915 1.22888 9.00011 1.22087 8.97746 1.21286C8.95481 1.20485 8.94246 1.20058 8.92599 1.19311V1.19738C8.64858 1.11141 8.36397 1.0548 8.07626 1.0281V1.87822C8.36705 1.90385 8.65218 1.97594 8.92136 2.09182C9.2595 2.23066 9.53949 2.48644 9.71448 2.81592C9.89668 3.20093 9.98263 3.62706 9.96513 4.05532V4.29348H10.7958V4.0612C10.8329 3.3355 10.6229 2.61887 10.2024 2.03735Z" fill="#7A7A7A"/>
<path d="M8.10002 0.430167V2.32109C8.10002 2.55934 7.9067 2.75231 7.66802 2.75231C7.42934 2.75231 7.23602 2.55934 7.23602 2.32109V0.434479C7.23386 0.196227 7.4261 0.00163731 7.66478 1.00469e-05C7.90346 -0.00159687 8.0984 0.189759 8.10002 0.428011V0.430167ZM3.564 0.437018V2.32326C3.564 2.56255 3.37045 2.75656 3.13173 2.75656C2.89302 2.75656 2.7 2.56255 2.7 2.32326V0.437018C2.7 0.197734 2.89302 0.00425905 3.13173 0.00425905C3.37045 0.00425905 3.564 0.197734 3.564 0.437018ZM10.8 4.29356V8.9461C10.8 10.975 9.66695 12 7.42146 12H3.37339C1.13305 12 0 10.975 0 8.9461V4.29356H10.8ZM7.86953 8.54777C7.59142 8.54777 7.36996 8.77615 7.36996 9.05764C7.37511 9.33913 7.59657 9.5675 7.86953 9.5675C8.14249 9.5675 8.36395 9.33913 8.36395 9.05764C8.36395 8.77615 8.14249 8.54777 7.86953 8.54777ZM5.40258 8.54246C5.12446 8.54777 4.903 8.77615 4.903 9.05764C4.903 9.33913 5.12961 9.5675 5.40258 9.5675C5.67554 9.5675 5.897 9.33913 5.897 9.05233C5.89185 8.77615 5.67554 8.54777 5.40258 8.54246ZM2.93047 8.54246C2.65236 8.54246 2.4309 8.77615 2.43605 9.05764C2.43605 9.33913 2.65751 9.5675 2.93047 9.5675C3.20343 9.5675 3.42489 9.33382 3.42489 9.05233C3.42489 8.77084 3.20343 8.54246 2.93047 8.54246ZM7.86953 6.37021C7.59142 6.37021 7.37511 6.59859 7.37511 6.88007C7.37511 7.16156 7.59657 7.38994 7.86953 7.38994C8.14249 7.38994 8.36395 7.16156 8.36395 6.88007C8.36395 6.59859 8.14249 6.37021 7.86953 6.37021ZM5.40258 6.3649C5.12446 6.37021 4.903 6.59859 4.903 6.88007C4.903 7.16156 5.12961 7.38994 5.40258 7.38994C5.67554 7.38994 5.897 7.16156 5.897 6.87476C5.897 6.59859 5.67554 6.37021 5.40258 6.3649ZM2.93562 6.3649C2.65751 6.3649 2.43605 6.59859 2.43605 6.88007C2.43605 7.16156 2.65751 7.38994 2.93047 7.38994C3.20858 7.38994 3.43004 7.15625 3.42489 6.87476C3.42489 6.59327 3.20343 6.3649 2.93562 6.3649Z" fill="#7A7A7A"/>
</svg>
