<svg width="11" height="16" viewBox="0 0 11 16" fill="none" xmlns="http://www.w3.org/2000/svg">
<path d="M2.23233 14.9653L1.15353 11.8722C1.0747 11.6463 1.03451 11.4088 1.03467 11.1696V10.1691H4.01589V11.1696C4.01605 11.4088 3.97587 11.6463 3.89704 11.8722L2.81963 14.9653C2.79864 15.0265 2.75906 15.0796 2.70641 15.1172C2.65376 15.1548 2.59068 15.175 2.52598 15.175C2.46128 15.175 2.3982 15.1548 2.34555 15.1172C2.2929 15.0796 2.25332 15.0265 2.23233 14.9653Z" fill="#F30C2B"/>
<path d="M4.53966 2.66297H4.583C4.70872 2.66297 4.8293 2.71291 4.91819 2.80181C5.00709 2.89071 5.05703 3.01128 5.05703 3.137V8.32198C5.05693 8.5191 4.97875 8.70815 4.8396 8.84775L4.02088 9.66577H1.03616L0.217438 8.84775C0.0782838 8.70815 0.000101665 8.5191 0 8.32198V3.137C0.000184937 3.01134 0.0501858 2.89087 0.139044 2.80201C0.227902 2.71316 0.348367 2.66316 0.474031 2.66297H0.517379V1.91137C0.517379 1.91137 0 1.62611 0 1.27444V0.649386H5.05354V1.27444C5.05354 1.62402 4.53616 1.91137 4.53616 1.91137L4.53966 2.66297Z" fill="#F30C2B"/>
<path d="M1.52783 10.6723H2.03822V11.2477L2.36333 14.1716L1.52783 11.4057V10.6723Z" fill="white"/>
<path d="M1.21018 8.677H1.82754C1.88316 8.677 1.93651 8.6549 1.97585 8.61556C2.01518 8.57623 2.03728 8.52288 2.03728 8.46725V3.14733H0.999028V8.46585C0.998842 8.49363 1.00418 8.52117 1.01472 8.54687C1.02527 8.57257 1.04081 8.59592 1.06046 8.61557C1.0801 8.63521 1.10345 8.65076 1.12915 8.6613C1.15485 8.67185 1.1824 8.67718 1.21018 8.677Z" fill="white"/>
<path d="M2.03868 1.63306H0.999023V1.13176H2.03868V1.63306Z" fill="white"/>
<path d="M8.10901 0.20805L7.0295 3.30114C6.95101 3.5271 6.91083 3.76459 6.91064 4.0038V5.0022H9.89257V4.0038C9.89249 3.76452 9.85207 3.52698 9.77301 3.30114L8.69421 0.20805C8.6731 0.147257 8.63359 0.0945454 8.58115 0.0572419C8.52871 0.0199389 8.46596 -0.000106812 8.40161 -0.000106812C8.33725 -0.000106812 8.2745 0.0199389 8.22206 0.0572419C8.16963 0.0945454 8.13011 0.147257 8.10901 0.20805Z" fill="#F30C2B"/>
<path d="M10.4128 12.5106H10.4568C10.519 12.5106 10.5806 12.4984 10.6381 12.4745C10.6956 12.4507 10.7478 12.4158 10.7918 12.3717C10.8357 12.3277 10.8706 12.2754 10.8943 12.2179C10.9181 12.1604 10.9302 12.0988 10.9301 12.0366V6.8516C10.93 6.6547 10.8518 6.46588 10.7127 6.32653L9.89469 5.50782H6.91067L6.09265 6.32374C6.02352 6.39259 5.96866 6.47442 5.93122 6.56452C5.89379 6.65463 5.87452 6.75124 5.87451 6.84881V12.0366C5.87451 12.1623 5.92445 12.2829 6.01335 12.3718C6.10225 12.4607 6.22282 12.5106 6.34854 12.5106H6.39189V13.2622C6.39189 13.2622 5.87451 13.5475 5.87451 13.8992V14.5249H10.9281V13.8992C10.9281 13.5496 10.4107 13.2622 10.4107 13.2622L10.4128 12.5106Z" fill="#F30C2B"/>
<path d="M7.40283 4.50098H7.91322V3.92557L8.23763 1.00237L7.40283 3.76826V4.50098Z" fill="white"/>
<path d="M7.08468 6.49624H7.70204C7.75767 6.49624 7.81102 6.51834 7.85036 6.55768C7.88969 6.59701 7.91179 6.65036 7.91179 6.70599V12.0266H6.87354V6.70599C6.87353 6.67833 6.87901 6.65094 6.88963 6.6254C6.90026 6.59986 6.91584 6.57667 6.93546 6.55718C6.95509 6.53768 6.97838 6.52226 7.00398 6.5118C7.02959 6.50134 7.05702 6.49606 7.08468 6.49624Z" fill="white"/>
<path d="M7.91319 14.0417H6.87354V13.5404H7.91319V14.0417Z" fill="white"/>
</svg>
