<svg width="8" height="9" viewBox="0 0 8 9" fill="none" xmlns="http://www.w3.org/2000/svg">
<path opacity="0.4" d="M2.6238 1.38165H5.15085V0.793274H2.6238V1.38165ZM2.04894 0.817439V0.820368C1.85167 0.838309 1.65652 0.877485 1.46667 0.936433V0.934236C1.45361 0.939728 1.44232 0.942291 1.43138 0.947783C1.41621 0.951445 1.40138 0.956937 1.38727 0.963893C1.34563 0.97744 1.30399 0.99355 1.26482 1.01003C1.244 1.01808 1.22317 1.0287 1.20235 1.03675C1.17377 1.0503 1.14272 1.06641 1.11413 1.07996L1.04355 1.1206C1.02273 1.13122 1.00438 1.14476 0.983562 1.15721C0.877342 1.22568 0.778886 1.30586 0.689957 1.39703L0.684664 1.40252C0.653257 1.43914 0.622202 1.47282 0.593618 1.50797L0.588325 1.5131C0.29966 1.91145 0.154975 2.40244 0.18003 2.90002V3.05783H0.749949V2.89856C0.749949 2.20509 0.970858 1.77342 1.46243 1.55227C1.65017 1.47282 1.8485 1.42376 2.05035 1.40582H2.05564V0.820002L2.04894 0.817439ZM7.17256 1.5109L7.17009 1.50577C7.1408 1.4688 7.10939 1.43365 7.07622 1.40033L7.07304 1.39484C6.98305 1.3044 6.88354 1.22385 6.77697 1.15502C6.75862 1.14403 6.74168 1.13049 6.7198 1.1184C6.69792 1.10632 6.67286 1.09131 6.64675 1.07776C6.62134 1.06421 6.58958 1.0481 6.55853 1.03456C6.54053 1.0265 6.51936 1.01588 6.49642 1.00783C6.45654 0.991354 6.41808 0.975244 6.37679 0.961697C6.36126 0.956571 6.3482 0.951079 6.33268 0.945587C6.31715 0.940095 6.30868 0.937165 6.29739 0.93204V0.934969C6.10718 0.876021 5.91203 0.83721 5.71477 0.818903V1.40179C5.91415 1.41937 6.10965 1.4688 6.29421 1.54825C6.52606 1.64344 6.71803 1.81882 6.83802 2.04473C6.96294 2.30871 7.02187 2.60089 7.00987 2.89453V3.05783H7.57944V2.89856C7.60485 2.40098 7.46087 1.90962 7.17256 1.5109Z" fill="#F2B41F"/>
<path d="M5.73106 0.408837V1.70535C5.73106 1.86871 5.59851 2.00102 5.43485 2.00102C5.2712 2.00102 5.13865 1.86871 5.13865 1.70535V0.411794C5.13717 0.248436 5.26898 0.115014 5.43263 0.113898C5.59628 0.112797 5.72994 0.244001 5.73106 0.407359V0.408837ZM2.62092 0.413534V1.70685C2.62092 1.87091 2.48821 2.00394 2.32453 2.00394C2.16085 2.00394 2.02851 1.87091 2.02851 1.70685V0.413534C2.02851 0.249469 2.16085 0.116812 2.32453 0.116812C2.48821 0.116812 2.62092 0.249469 2.62092 0.413534ZM7.58231 3.05779V6.24782C7.58231 7.63891 6.80543 8.34174 5.2658 8.34174H2.49022C0.954125 8.34174 0.177246 7.63891 0.177246 6.24782V3.05779H7.58231ZM5.57302 5.9747C5.38233 5.9747 5.23049 6.13129 5.23049 6.3243C5.23402 6.5173 5.38586 6.67389 5.57302 6.67389C5.76018 6.67389 5.91202 6.5173 5.91202 6.3243C5.91202 6.13129 5.76018 5.9747 5.57302 5.9747ZM3.88154 5.97106C3.69085 5.9747 3.53901 6.13129 3.53901 6.3243C3.53901 6.5173 3.69439 6.67389 3.88154 6.67389C4.0687 6.67389 4.22054 6.5173 4.22054 6.32065C4.21701 6.13129 4.0687 5.9747 3.88154 5.97106ZM2.18654 5.97106C1.99585 5.97106 1.844 6.13129 1.84753 6.3243C1.84753 6.5173 1.99938 6.67389 2.18654 6.67389C2.37369 6.67389 2.52554 6.51366 2.52554 6.32065C2.52554 6.12765 2.37369 5.97106 2.18654 5.97106ZM5.57302 4.48165C5.38233 4.48165 5.23402 4.63824 5.23402 4.83124C5.23402 5.02425 5.38586 5.18084 5.57302 5.18084C5.76018 5.18084 5.91202 5.02425 5.91202 4.83124C5.91202 4.63824 5.76018 4.48165 5.57302 4.48165ZM3.88154 4.47801C3.69085 4.48165 3.53901 4.63824 3.53901 4.83124C3.53901 5.02425 3.69439 5.18084 3.88154 5.18084C4.0687 5.18084 4.22054 5.02425 4.22054 4.8276C4.22054 4.63824 4.0687 4.48165 3.88154 4.47801ZM2.19007 4.47801C1.99938 4.47801 1.84753 4.63824 1.84753 4.83124C1.84753 5.02425 1.99938 5.18084 2.18654 5.18084C2.37722 5.18084 2.52907 5.02061 2.52554 4.8276C2.52554 4.6346 2.37369 4.47801 2.19007 4.47801Z" fill="#F2B41F"/>
</svg>
