<svg width="52" height="37" viewBox="0 0 52 37" fill="none" xmlns="http://www.w3.org/2000/svg">
<path d="M34.2171 17.8979C29.5922 15.4264 25.1638 13.1542 20.6372 10.7819V24.9738C25.4006 22.3843 30.4213 20.0129 34.2367 17.8979H34.2171Z" fill="white"/>
<path d="M34.2171 17.8979C29.5922 15.4264 20.6372 10.7819 20.6372 10.7819L32.5766 18.8066C32.5775 18.8066 30.4017 20.0129 34.2171 17.8979Z" fill="#E8E0E0"/>
<path d="M21.5079 36.0827C11.9016 35.9059 8.62056 35.7468 6.60385 35.3313C5.2394 35.0552 4.0537 34.4422 3.18432 33.5532C2.51239 32.8803 1.97803 31.8537 1.56345 30.4294C1.20784 29.2428 1.06934 28.2554 0.871875 25.8438C0.569601 20.401 0.497542 15.9511 0.871875 10.9791C1.1807 8.23332 1.33043 4.97382 3.38178 3.07221C4.35036 2.18223 5.4771 1.6095 6.74235 1.37273C8.71883 0.997465 17.1394 0.700806 25.8567 0.700806C34.5543 0.700806 42.9937 0.997465 44.972 1.37273C46.5526 1.66939 48.035 2.55843 48.9053 3.70483C50.777 6.64895 50.8097 10.3099 50.9997 13.1736C51.0783 14.538 51.0783 22.2858 50.9997 23.6502C50.704 28.1759 50.4663 29.7771 49.7944 31.4373C49.3789 32.4854 49.0242 33.0385 48.4103 33.6515C47.4475 34.5947 46.22 35.2222 44.8915 35.4501C36.5785 36.0753 29.5196 36.211 21.5079 36.0827ZM34.238 17.8977C29.6131 15.4261 25.1848 13.1343 20.6582 10.7619V24.9548C25.4216 22.3653 30.4432 19.993 34.2577 17.878L34.238 17.8977Z" fill="#F4361A"/>
</svg>
