<svg width="12" height="12" viewBox="0 0 12 12" fill="none" xmlns="http://www.w3.org/2000/svg">
<path d="M11.2562 3.85629L10.2607 4.85171C10.2369 4.87625 10.2083 4.89576 10.1767 4.90908C10.1452 4.9224 10.1113 4.92927 10.077 4.92927C10.0428 4.92927 10.0089 4.9224 9.97733 4.90908C9.94578 4.89576 9.91722 4.87625 9.89333 4.85171L7.49237 2.47638C7.46783 2.45249 7.44832 2.42393 7.43499 2.39238C7.42167 2.36083 7.41481 2.32692 7.41481 2.29268C7.41481 2.25843 7.42167 2.22452 7.43499 2.19297C7.44832 2.16142 7.46783 2.13286 7.49237 2.10897L8.48779 1.10928C8.68363 0.916217 8.94759 0.807983 9.2226 0.807983C9.49761 0.807983 9.76157 0.916217 9.95741 1.10928L11.2391 2.39094C11.3372 2.48557 11.4156 2.59875 11.4696 2.72391C11.5236 2.84907 11.5523 2.98372 11.5539 3.12004C11.5555 3.25636 11.53 3.39164 11.4789 3.51803C11.4277 3.64441 11.352 3.75939 11.2562 3.85629ZM9.4063 5.343L7.00534 2.94205C6.98146 2.9175 6.9529 2.89799 6.92134 2.88467C6.88979 2.87135 6.85589 2.86448 6.82164 2.86448C6.78739 2.86448 6.75349 2.87135 6.72194 2.88467C6.69039 2.89799 6.66182 2.9175 6.63794 2.94205L0.955952 8.61976L0.49883 11.2471C0.484606 11.3294 0.490356 11.4139 0.515596 11.4935C0.540837 11.5731 0.584829 11.6454 0.643868 11.7045C0.702908 11.7635 0.775267 11.8075 0.854855 11.8328C0.934444 11.858 1.01893 11.8637 1.10121 11.8495L3.72859 11.3881L9.4063 5.71041C9.43085 5.68653 9.45036 5.65796 9.46368 5.62641C9.477 5.59486 9.48386 5.56096 9.48386 5.52671C9.48386 5.49246 9.477 5.45856 9.46368 5.42701C9.45036 5.39545 9.43085 5.36689 9.4063 5.343ZM3.42527 10.7388L2.02827 10.9823L1.35754 10.3115L1.60105 8.91454H2.39567V9.95268H3.43381L3.42527 10.7388ZM6.92417 4.80471L3.59188 8.13273C3.53373 8.18122 3.45956 8.20621 3.38392 8.2028C3.30829 8.19938 3.23667 8.1678 3.18313 8.11426C3.1296 8.06073 3.09802 7.98911 3.0946 7.91347C3.09118 7.83784 3.11617 7.76366 3.16466 7.70551L6.49696 4.3775C6.5551 4.32901 6.62928 4.30401 6.70491 4.30743C6.78055 4.31085 6.85217 4.34243 6.9057 4.39596C6.95924 4.4495 6.99082 4.52112 6.99424 4.59675C6.99765 4.67239 6.97266 4.74657 6.92417 4.80471Z" fill="white"/>
</svg>
