<svg width="12" height="9" viewBox="0 0 12 9" fill="none" xmlns="http://www.w3.org/2000/svg">
<path d="M11.9259 3.2451L11.1105 5.51585C10.994 5.80519 10.7947 6.05486 10.5369 6.23463C10.279 6.41426 9.97367 6.51608 9.65802 6.52776H5.47249C5.15771 6.51533 4.85293 6.41622 4.59265 6.24143C4.33227 6.06677 4.12695 5.82356 3.99996 5.53964L2.30851 1.30838H2.3084C2.18457 1.06184 1.93901 0.897013 1.66076 0.873771H0.444098C0.326413 0.873987 0.213446 0.828052 0.130078 0.746122C0.0468334 0.664194 0 0.552865 0 0.436884C0 0.320904 0.0468334 0.20969 0.130078 0.127757C0.213435 0.0458297 0.326402 -0.000107722 0.444098 1.89694e-07H1.66076C1.97542 0.01243 2.28032 0.111654 2.5406 0.286327C2.80097 0.460993 3.00629 0.704197 3.13329 0.988116L4.82474 5.21938C4.94857 5.46603 5.19424 5.63086 5.47249 5.65399H9.65803C9.79041 5.64307 9.91731 5.59757 10.0258 5.52202C10.1342 5.44647 10.2201 5.34379 10.2748 5.22446L11.0901 2.95371C11.1073 2.91923 11.1112 2.87967 11.1009 2.8426C11.0688 2.82066 11.0297 2.81104 10.991 2.81558H5.21819C5.10051 2.81579 4.98754 2.76986 4.90428 2.68793C4.82093 2.60589 4.77421 2.49467 4.77421 2.37869C4.77421 2.26272 4.82093 2.1515 4.90428 2.06956C4.98753 1.98753 5.1005 1.94159 5.21819 1.94181H10.991C11.3197 1.92343 11.6348 2.07324 11.8248 2.33826C12.0148 2.60317 12.0531 2.9458 11.9258 3.24508L11.9259 3.2451ZM4.33282 7.05827C4.07157 7.05827 3.82096 7.16052 3.63624 7.34263C3.45143 7.52465 3.34769 7.77163 3.34769 8.0291C3.34769 8.28655 3.45144 8.53351 3.63624 8.71564C3.82094 8.89765 4.07156 9 4.33282 9C4.59418 9 4.84468 8.89764 5.02948 8.71564C5.21429 8.53351 5.31804 8.28653 5.31804 8.0291C5.31804 7.77164 5.21428 7.52467 5.02948 7.34255C4.84478 7.16054 4.59417 7.0583 4.33282 7.0583V7.05827ZM10.6494 7.05827C10.3882 7.05827 10.1376 7.16052 9.95287 7.34263C9.76806 7.52476 9.66431 7.77163 9.66431 8.02918C9.66431 8.28664 9.76818 8.53351 9.95287 8.71564C10.1377 8.89765 10.3883 9 10.6495 9C10.9108 9 11.1614 8.89764 11.3461 8.71564C11.5309 8.53351 11.6347 8.28653 11.6347 8.0291C11.6347 7.77164 11.5309 7.52467 11.3461 7.34255C11.1613 7.16054 10.9107 7.05819 10.6494 7.0583V7.05827ZM9.86392 3.64493C9.86392 3.58699 9.84056 3.53144 9.79899 3.49047C9.75742 3.44951 9.70104 3.4266 9.64226 3.4266H5.72655C5.66765 3.42638 5.61117 3.4494 5.56949 3.49037C5.52781 3.53133 5.50434 3.587 5.50434 3.64493C5.50434 3.70297 5.52781 3.75863 5.56949 3.7996C5.61117 3.84056 5.66765 3.86347 5.72655 3.86337H9.64226C9.70105 3.86337 9.75742 3.84034 9.79899 3.79938C9.84055 3.75842 9.86392 3.70286 9.86392 3.64493ZM6.12594 4.51868C6.00354 4.51868 5.90439 4.6165 5.90439 4.73712C5.90439 4.85774 6.00354 4.95556 6.12594 4.95556H9.3428C9.4652 4.95556 9.56445 4.85774 9.56445 4.73712C9.56445 4.6165 9.4652 4.51868 9.3428 4.51868H6.12594Z" fill="white"/>
</svg>
