<svg width="127" height="39" viewBox="0 0 127 39" fill="none" xmlns="http://www.w3.org/2000/svg">
<path d="M38.4111 17.5447C38.3641 17.551 38.3162 17.5461 38.2714 17.5304C38.2266 17.5147 38.1861 17.4886 38.1533 17.4543C38.1206 17.4199 38.0964 17.3783 38.0827 17.3328C38.0691 17.2874 38.0664 17.2393 38.0748 17.1926V2.72151C38.0664 2.67479 38.0691 2.62673 38.0827 2.58126C38.0964 2.53578 38.1206 2.49417 38.1533 2.45984C38.1861 2.4255 38.2266 2.39941 38.2714 2.38368C38.3162 2.36796 38.3641 2.36306 38.4111 2.36937H42.3093C42.4089 2.37613 42.5047 2.41008 42.5864 2.46751C42.668 2.52494 42.7323 2.60365 42.7724 2.6951L49.2394 13.5515H49.514L55.981 2.6951C56.0209 2.60354 56.0852 2.52471 56.1668 2.46726C56.2485 2.4098 56.3444 2.37594 56.4441 2.36937H60.3422C60.3892 2.36345 60.4369 2.36862 60.4816 2.38448C60.5262 2.40034 60.5665 2.42643 60.5992 2.46068C60.6319 2.49492 60.6561 2.53635 60.6699 2.58165C60.6836 2.62695 60.6866 2.67486 60.6785 2.72151V17.1979C60.6866 17.2445 60.6836 17.2924 60.6699 17.3377C60.6561 17.383 60.6319 17.4245 60.5992 17.4587C60.5665 17.493 60.5262 17.519 60.4816 17.5349C60.4369 17.5508 60.3892 17.5559 60.3422 17.55H57.6449C57.4336 17.55 57.3297 17.4338 57.3297 17.1979V6.9859H57.0973L51.03 17.1979C50.9854 17.2967 50.9149 17.3817 50.8259 17.4437C50.7369 17.5057 50.6328 17.5424 50.5247 17.55H48.2358C48.1275 17.5426 48.0234 17.5059 47.9343 17.4439C47.8453 17.3819 47.7749 17.2969 47.7304 17.1979L41.6631 6.9859H41.4307V17.1979C41.4307 17.4285 41.3251 17.55 41.1156 17.55L38.4111 17.5447Z" fill="white"/>
<path d="M80.3982 14.5321C80.442 14.5264 80.4865 14.5309 80.5282 14.5454C80.5699 14.5599 80.6076 14.5839 80.6384 14.6155C80.6692 14.6471 80.6921 14.6855 80.7054 14.7276C80.7188 14.7697 80.7221 14.8143 80.7151 14.8579V17.2172C80.7221 17.2608 80.7188 17.3054 80.7054 17.3475C80.6921 17.3895 80.6692 17.4279 80.6384 17.4596C80.6076 17.4912 80.5699 17.5152 80.5282 17.5297C80.4865 17.5441 80.442 17.5487 80.3982 17.5429H63.7562C63.7092 17.5488 63.6615 17.5437 63.6169 17.5278C63.5723 17.512 63.532 17.4859 63.4993 17.4516C63.4666 17.4174 63.4424 17.3759 63.4286 17.3306C63.4148 17.2853 63.4118 17.2374 63.4199 17.1908V2.72146C63.4118 2.67481 63.4148 2.6269 63.4286 2.5816C63.4424 2.5363 63.4666 2.49487 63.4993 2.46063C63.532 2.42638 63.5723 2.40028 63.6169 2.38443C63.6615 2.36857 63.7092 2.3634 63.7562 2.36932H83.2523V5.38186H66.7687V8.43841H80.0831C80.1266 8.43264 80.1709 8.43712 80.2123 8.45151C80.2538 8.46589 80.2914 8.48977 80.322 8.52124C80.3526 8.55271 80.3754 8.59091 80.3887 8.63278C80.4019 8.67464 80.4052 8.71902 80.3982 8.76238V11.1463C80.4052 11.1897 80.4019 11.2341 80.3887 11.2759C80.3754 11.3178 80.3526 11.356 80.322 11.3875C80.2914 11.419 80.2538 11.4428 80.2123 11.4572C80.1709 11.4716 80.1266 11.4761 80.0831 11.4703H66.7687V14.5269L80.3982 14.5321Z" fill="white"/>
<path d="M83.5886 17.5448C83.5415 17.5511 83.4936 17.5462 83.4488 17.5304C83.404 17.5147 83.3636 17.4886 83.3308 17.4543C83.298 17.42 83.2738 17.3784 83.2602 17.3329C83.2465 17.2874 83.2438 17.2393 83.2523 17.1926V2.37468H87.4779C87.5775 2.38144 87.6734 2.41538 87.755 2.47281C87.8367 2.53024 87.901 2.60896 87.941 2.70041L94.408 13.5568H94.6827L101.15 2.70041C101.19 2.60884 101.254 2.53002 101.336 2.47257C101.417 2.41511 101.513 2.38125 101.613 2.37468H105.509C105.556 2.36845 105.604 2.3734 105.649 2.38912C105.694 2.40484 105.734 2.4309 105.767 2.46518C105.8 2.49947 105.825 2.54101 105.838 2.58646C105.852 2.63191 105.855 2.68 105.847 2.72682V17.55H102.826C102.616 17.55 102.511 17.4338 102.511 17.1979V6.98592H102.278L96.2109 17.1979C96.1664 17.2968 96.0959 17.3817 96.0069 17.4437C95.9179 17.5057 95.8138 17.5425 95.7056 17.55H93.4167C93.3083 17.5426 93.2039 17.5059 93.1146 17.4439C93.0254 17.3819 92.9545 17.2969 92.9097 17.1979L86.8441 6.98592H86.6117V17.1979C86.6117 17.4286 86.506 17.55 86.2948 17.55L83.5886 17.5448Z" fill="white"/>
<path d="M105.856 14.5321V17.5447H125.556C125.603 17.5506 125.651 17.5454 125.696 17.5296C125.74 17.5137 125.781 17.4876 125.813 17.4534C125.846 17.4191 125.87 17.3777 125.884 17.3324C125.898 17.2871 125.901 17.2392 125.893 17.1925V2.72146C125.901 2.67481 125.898 2.6269 125.884 2.5816C125.87 2.5363 125.846 2.49487 125.813 2.46063C125.781 2.42638 125.74 2.40028 125.696 2.38443C125.651 2.36857 125.603 2.3634 125.556 2.36932H109.018C108.975 2.36386 108.93 2.36862 108.889 2.38323C108.847 2.39784 108.81 2.42189 108.779 2.45348C108.749 2.48508 108.726 2.52335 108.713 2.56528C108.699 2.6072 108.696 2.65163 108.703 2.69505V5.06845C108.696 5.11187 108.699 5.1563 108.713 5.19823C108.726 5.24015 108.749 5.27842 108.779 5.31002C108.81 5.34161 108.847 5.36566 108.889 5.38027C108.93 5.39488 108.975 5.39964 109.018 5.39418H122.546V8.45073H109.229C109.186 8.44496 109.142 8.44945 109.1 8.46383C109.059 8.47821 109.021 8.50209 108.991 8.53357C108.96 8.56504 108.937 8.60323 108.924 8.6451C108.911 8.68696 108.907 8.73134 108.914 8.7747V11.1587C108.907 11.202 108.911 11.2464 108.924 11.2883C108.937 11.3301 108.96 11.3683 108.991 11.3998C109.021 11.4313 109.059 11.4552 109.1 11.4695C109.142 11.4839 109.186 11.4884 109.229 11.4826H122.546V14.5392L105.856 14.5321Z" fill="white"/>
<path d="M45.5648 37.3172C45.4046 37.3172 45.262 37.2028 45.1387 36.9739L38.1365 22.7775C38.0798 22.677 38.0628 22.5588 38.0889 22.4464C38.1041 22.4081 38.1314 22.3758 38.1667 22.3545C38.2021 22.3332 38.2434 22.3241 38.2844 22.3285H41.0258C41.2106 22.3285 41.3532 22.457 41.4518 22.7141L46.6952 33.3768H46.9364L52.7343 22.7141C52.8699 22.457 53.0125 22.3285 53.1604 22.3285H55.7169C55.8648 22.3285 56.0074 22.457 56.143 22.7141L61.9427 33.3768H62.1822L67.4255 22.7141C67.5241 22.457 67.6667 22.3285 67.8516 22.3285H70.5947C70.6355 22.3242 70.6765 22.3334 70.7115 22.3547C70.7465 22.376 70.7736 22.4082 70.7884 22.4464C70.8154 22.5586 70.7991 22.6768 70.7426 22.7775L63.7386 36.9739C63.6154 37.2028 63.4727 37.3172 63.3125 37.3172H60.8863C60.7384 37.3172 60.6028 37.2028 60.4778 36.9739L54.4387 25.7759L48.3995 36.9739C48.2763 37.2028 48.1407 37.3172 47.991 37.3172H45.5648Z" fill="white"/>
<path d="M84.3387 36.8683C84.3697 36.9169 84.3902 36.9714 84.399 37.0284C84.4078 37.0854 84.4046 37.1436 84.3897 37.1993C84.3754 37.2364 84.3496 37.2679 84.3159 37.2892C84.2823 37.3104 84.2427 37.3203 84.2031 37.3172H81.6677C81.521 37.3172 81.3854 37.1887 81.261 36.9317L80.2415 34.9403H70.8712L69.8535 36.9369C69.7279 37.194 69.5976 37.3225 69.4626 37.3225H66.9167C66.8768 37.3254 66.8371 37.3155 66.8032 37.2943C66.7693 37.2731 66.7431 37.2417 66.7283 37.2046C66.7138 37.1488 66.7108 37.0907 66.7196 37.0338C66.7284 36.9769 66.7487 36.9223 66.7793 36.8736L74.0457 22.6754C74.1584 22.4465 74.2834 22.3232 74.4189 22.3232H76.6938C76.8417 22.3232 76.9719 22.4406 77.0846 22.6754L84.3387 36.8683ZM72.3484 32.0281H78.7661L75.6761 25.9467H75.4542L72.3484 32.0281Z" fill="white"/>
<path d="M104.705 36.5619C104.753 36.6139 104.78 36.6817 104.782 36.7527C104.784 36.8236 104.76 36.8929 104.715 36.9475C104.664 37.0071 104.6 37.0541 104.527 37.0847C104.455 37.1152 104.376 37.1285 104.298 37.1235H101.813C101.691 37.118 101.572 37.0817 101.467 37.018C101.363 36.9543 101.276 36.8652 101.215 36.7591L98.815 33.2219H89.6506V36.7749C89.6506 37.0038 89.5432 37.1183 89.3302 37.1183H86.5888C86.5423 37.1248 86.4949 37.1203 86.4503 37.1053C86.4058 37.0904 86.3654 37.0652 86.3322 37.0319C86.2991 36.9986 86.2742 36.958 86.2594 36.9134C86.2447 36.8688 86.2405 36.8214 86.2472 36.7749V22.4711C86.2404 22.4247 86.2446 22.3773 86.2593 22.3327C86.2741 22.2882 86.299 22.2477 86.3322 22.2145C86.3654 22.1813 86.4059 22.1564 86.4504 22.1416C86.495 22.1269 86.5424 22.1227 86.5888 22.1295H100.674C103.216 22.1295 104.486 23.4354 104.484 26.0471V29.3237C104.484 31.2522 103.764 32.4659 102.322 32.9648L104.705 36.5619ZM89.6506 25.1051V30.2463H99.8873C100.301 30.2463 100.604 30.1583 100.796 29.9787C100.988 29.7991 101.086 29.4962 101.086 29.0684V26.283C101.086 25.8546 100.989 25.5511 100.796 25.3727C100.602 25.1943 100.299 25.1051 99.8873 25.1051H89.6506Z" fill="white"/>
<path d="M121.477 28.5385C124.529 28.6957 126.055 30.1788 126.055 32.9877C126.055 34.4784 125.675 35.5536 124.915 36.2133C124.156 36.873 122.982 37.2034 121.394 37.2046H111.342C109.85 37.2046 108.764 36.8812 108.083 36.2344C107.402 35.5877 107.062 34.6334 107.062 33.3715C107.062 33.03 107.238 32.8609 107.59 32.8609H109.784C109.93 32.8516 110.075 32.8997 110.186 32.9951C110.298 33.0904 110.367 33.2255 110.381 33.3715C110.536 33.9584 110.975 34.2519 111.7 34.2519H121.243C122.236 34.2519 122.732 33.7976 122.732 32.8891C122.737 32.6428 122.716 32.3967 122.669 32.1549C122.595 31.9205 122.44 31.7201 122.232 31.5897C121.919 31.385 121.55 31.2811 121.176 31.2922L111.636 30.8027C108.584 30.6466 107.059 29.1629 107.059 26.3517C107.059 24.8621 107.438 23.7869 108.198 23.1261C108.957 22.4653 110.131 22.1354 111.719 22.1366H121.429C122.919 22.1366 124.005 22.4594 124.687 23.105C125.368 23.7506 125.709 24.7054 125.708 25.9696C125.708 26.3094 125.532 26.4802 125.18 26.4802H122.989C122.916 26.4899 122.841 26.484 122.77 26.4629C122.699 26.4418 122.633 26.406 122.577 26.3579C122.521 26.3097 122.475 26.2503 122.443 26.1834C122.412 26.1165 122.394 26.0437 122.392 25.9696C122.25 25.3827 121.81 25.0893 121.072 25.0893H111.874C110.881 25.0893 110.384 25.5435 110.384 26.452C110.38 26.6983 110.401 26.9444 110.448 27.1862C110.521 27.4206 110.676 27.6208 110.885 27.7497C111.198 27.9551 111.566 28.0595 111.941 28.049L121.477 28.5385Z" fill="white"/>
<path d="M5.63593 1.26539L2.91919 9.05467C2.72068 9.62348 2.61948 10.2217 2.61987 10.8242V13.3437H10.1274V10.8242C10.1278 10.2217 10.0266 9.62348 9.82813 9.05467L7.11491 1.26539C7.06206 1.11126 6.96238 0.977499 6.8298 0.882796C6.69722 0.788093 6.53835 0.737183 6.37542 0.737183C6.21249 0.737183 6.05363 0.788093 5.92104 0.882796C5.78846 0.977499 5.68877 1.11126 5.63593 1.26539Z" fill="#F30C2B"/>
<path d="M11.4462 32.2465H11.5554C11.872 32.2465 12.1756 32.1207 12.3995 31.8968C12.6234 31.673 12.7491 31.3693 12.7491 31.0527V17.9955C12.7489 17.4991 12.552 17.023 12.2016 16.6715L10.1398 14.6115H2.62344L0.56167 16.6715C0.21124 17.023 0.0143551 17.4991 0.0140991 17.9955V31.0527C0.0145648 31.3692 0.140481 31.6726 0.364251 31.8963C0.588021 32.1201 0.891386 32.246 1.20784 32.2465H1.31701V34.1392C1.31701 34.1392 0.0140991 34.8576 0.0140991 35.7432V37.3173H12.7403V35.7432C12.7403 34.8629 11.4374 34.1392 11.4374 34.1392L11.4462 32.2465Z" fill="#F30C2B"/>
<path d="M3.86121 12.076H5.14651V10.627L5.96523 3.26379L3.86121 10.2291V12.076Z" fill="white"/>
<path d="M3.06183 17.1011H4.61652C4.75661 17.1011 4.89095 17.1567 4.99001 17.2558C5.08907 17.3549 5.14472 17.4892 5.14472 17.6293V31.0264H2.5301V17.6328C2.52963 17.5629 2.54307 17.4935 2.56962 17.4288C2.59618 17.3641 2.63533 17.3052 2.6848 17.2558C2.73427 17.2063 2.79307 17.1672 2.85779 17.1406C2.92252 17.1141 2.99187 17.1006 3.06183 17.1011Z" fill="white"/>
<path d="M5.14823 34.84H2.53009V36.1024H5.14823V34.84Z" fill="white"/>
<path d="M20.4345 38.4282L17.716 30.639C17.5183 30.0699 17.4172 29.4719 17.4167 28.8695V26.3552H24.926V28.8695C24.9258 29.472 24.824 30.0702 24.6249 30.639L21.9082 38.4282C21.8551 38.5813 21.7555 38.7141 21.6235 38.808C21.4914 38.902 21.3334 38.9524 21.1713 38.9524C21.0093 38.9524 20.8513 38.902 20.7192 38.808C20.5872 38.7141 20.4876 38.5813 20.4345 38.4282Z" fill="#F30C2B"/>
<path d="M26.236 7.44717H26.3469C26.5036 7.44717 26.6587 7.47806 26.8035 7.53807C26.9482 7.59808 27.0797 7.68605 27.1904 7.79692C27.3011 7.90779 27.3889 8.0394 27.4487 8.18422C27.5085 8.32904 27.5391 8.48424 27.5389 8.64092V21.6982C27.5386 22.194 27.3417 22.6695 26.9913 23.0204L24.9313 25.0822H17.4167L15.3567 23.0275C15.1826 22.8541 15.0445 22.648 14.9502 22.4211C14.8559 22.1942 14.8074 21.9509 14.8074 21.7052V8.64092C14.8074 8.32432 14.9331 8.02068 15.157 7.79681C15.3809 7.57294 15.6845 7.44717 16.0011 7.44717H16.1103V5.55443C16.1103 5.55443 14.8074 4.83607 14.8074 3.95045V2.37463H27.5336V3.95045C27.5336 4.83079 26.2307 5.55443 26.2307 5.55443L26.236 7.44717Z" fill="#F30C2B"/>
<path d="M18.6562 27.6176H19.9416V29.0666L20.7585 36.428L18.6562 29.4628V27.6176Z" fill="white"/>
<path d="M17.8551 22.5926H19.4098C19.5499 22.5926 19.6842 22.5369 19.7833 22.4378C19.8823 22.3388 19.938 22.2044 19.938 22.0644V8.66553H17.3234V22.0644C17.3234 22.134 17.3371 22.203 17.3639 22.2673C17.3907 22.3316 17.4299 22.39 17.4793 22.4391C17.5287 22.4882 17.5874 22.527 17.6519 22.5534C17.7164 22.5797 17.7854 22.593 17.8551 22.5926Z" fill="white"/>
<path d="M19.9415 3.59131H17.3234V4.85372H19.9415V3.59131Z" fill="white"/>
</svg>
